<?xml version="1.0" encoding="utf-8"?><svg version="1.1" id="Ebene_1" xmlns="http://www.w3.org/2000/svg" xmlns:xlink="http://www.w3.org/1999/xlink" x="0px" y="0px" width="22.6px" height="19.5px" viewBox="0 0 22.6 19.5" style="enable-background:new 0 0 22.6 19.5;" xml:space="preserve"><style type="text/css">.st0{fill:#FFFFFF;}</style><g><path class="st0" d="M21.1,3.9H1.5C0.7,3.9,0,3.2,0,2.4V1.5C0,0.7,0.7,0,1.5,0h19.6c0.8,0,1.5,0.7,1.5,1.5v0.9C22.6,3.2,22,3.9,21.1,3.9z"/><path class="st0" d="M21.1,11.7H1.5C0.7,11.7,0,11,0,10.2V9.3c0-0.8,0.7-1.5,1.5-1.5h19.6c0.8,0,1.5,0.7,1.5,1.5v0.9C22.6,11,22,11.7,21.1,11.7z"/><path class="st0" d="M21.1,19.5H1.5C0.7,19.5,0,18.8,0,18v-0.9c0-0.8,0.7-1.5,1.5-1.5h19.6c0.8,0,1.5,0.7,1.5,1.5V18C22.6,18.8,22,19.5,21.1,19.5z"/></g></svg>