<?xml version="1.0" encoding="utf-8"?><svg version="1.1" id="Ebene_1" xmlns="http://www.w3.org/2000/svg" xmlns:xlink="http://www.w3.org/1999/xlink" x="0px" y="0px" width="17.8px" height="17.8px" viewBox="0 0 17.8 17.8" style="enable-background:new 0 0 17.8 17.8;" xml:space="preserve"><style type="text/css">.st0{fill:#FFFFFF;}</style><path class="st0" d="M14.8,0.4L8.9,6.2L3,0.3C2.6-0.1,2-0.1,1.5,0.4L0.4,1.5C0,1.9-0.2,2.6,0.3,3.1L6.2,9l-5.7,5.7c-0.5,0.5-0.6,1.1-0.2,1.6l1.1,1.1c0.5,0.5,1.4,0.5,1.8,0.1l5.7-5.7l5.7,5.7c0.5,0.5,1.4,0.5,1.8,0.1l1.1-1.1c0.5-0.5,0.3-1.3-0.2-1.7L11.7,9l5.9-5.9c0.5-0.5,0.3-1.3-0.2-1.7l-1.1-1.1C15.8-0.1,15.3-0.1,14.8,0.4z"/></svg>